<svg width="42" height="26" viewBox="0 0 42 26" fill="none" xmlns="http://www.w3.org/2000/svg">
<path d="M16.3984 17.3135H19.5859C19.4199 18.8408 18.9827 20.2077 18.2744 21.4141C17.5661 22.6204 16.5645 23.5778 15.2695 24.2861C13.9746 24.9834 12.3587 25.332 10.4219 25.332C9.00521 25.332 7.71582 25.0664 6.55371 24.5352C5.40267 24.0039 4.41211 23.2513 3.58203 22.2773C2.75195 21.2923 2.11003 20.1136 1.65625 18.7412C1.21354 17.3577 0.992188 15.8193 0.992188 14.126V11.7188C0.992188 10.0254 1.21354 8.49251 1.65625 7.12012C2.11003 5.73665 2.75749 4.55241 3.59863 3.56738C4.45085 2.58236 5.47461 1.82422 6.66992 1.29297C7.86523 0.761719 9.20996 0.496094 10.7041 0.496094C12.5303 0.496094 14.0742 0.839193 15.3359 1.52539C16.5977 2.21159 17.5771 3.16341 18.2744 4.38086C18.9827 5.58724 19.4199 6.9873 19.5859 8.58105H16.3984C16.2435 7.45215 15.9557 6.48372 15.5352 5.67578C15.1146 4.85677 14.5169 4.22591 13.7422 3.7832C12.9674 3.34049 11.9548 3.11914 10.7041 3.11914C9.63053 3.11914 8.68424 3.32389 7.86523 3.7334C7.05729 4.1429 6.37663 4.72396 5.82324 5.47656C5.28092 6.22917 4.87142 7.13118 4.59473 8.18262C4.31803 9.23405 4.17969 10.4017 4.17969 11.6855V14.126C4.17969 15.3102 4.30143 16.4225 4.54492 17.4629C4.79948 18.5033 5.18132 19.4163 5.69043 20.2021C6.19954 20.988 6.84701 21.6077 7.63281 22.0615C8.41862 22.5042 9.34831 22.7256 10.4219 22.7256C11.7832 22.7256 12.8678 22.5098 13.6758 22.0781C14.4837 21.6465 15.0924 21.0267 15.502 20.2188C15.9225 19.4108 16.2214 18.4424 16.3984 17.3135ZM38.5449 17.3135H41.7324C41.5664 18.8408 41.1292 20.2077 40.4209 21.4141C39.7126 22.6204 38.7109 23.5778 37.416 24.2861C36.1211 24.9834 34.5052 25.332 32.5684 25.332C31.1517 25.332 29.8623 25.0664 28.7002 24.5352C27.5492 24.0039 26.5586 23.2513 25.7285 22.2773C24.8984 21.2923 24.2565 20.1136 23.8027 18.7412C23.36 17.3577 23.1387 15.8193 23.1387 14.126V11.7188C23.1387 10.0254 23.36 8.49251 23.8027 7.12012C24.2565 5.73665 24.904 4.55241 25.7451 3.56738C26.5973 2.58236 27.6211 1.82422 28.8164 1.29297C30.0117 0.761719 31.3564 0.496094 32.8506 0.496094C34.6768 0.496094 36.2207 0.839193 37.4824 1.52539C38.7441 2.21159 39.7236 3.16341 40.4209 4.38086C41.1292 5.58724 41.5664 6.9873 41.7324 8.58105H38.5449C38.39 7.45215 38.1022 6.48372 37.6816 5.67578C37.2611 4.85677 36.6634 4.22591 35.8887 3.7832C35.1139 3.34049 34.1012 3.11914 32.8506 3.11914C31.777 3.11914 30.8307 3.32389 30.0117 3.7334C29.2038 4.1429 28.5231 4.72396 27.9697 5.47656C27.4274 6.22917 27.0179 7.13118 26.7412 8.18262C26.4645 9.23405 26.3262 10.4017 26.3262 11.6855V14.126C26.3262 15.3102 26.4479 16.4225 26.6914 17.4629C26.946 18.5033 27.3278 19.4163 27.8369 20.2021C28.346 20.988 28.9935 21.6077 29.7793 22.0615C30.5651 22.5042 31.4948 22.7256 32.5684 22.7256C33.9297 22.7256 35.0143 22.5098 35.8223 22.0781C36.6302 21.6465 37.2389 21.0267 37.6484 20.2188C38.069 19.4108 38.3678 18.4424 38.5449 17.3135Z" fill="url(#paint0_linear_701_2)"/>
<defs>
<linearGradient id="paint0_linear_701_2" x1="122.67" y1="-51.5" x2="-8.70419" y2="-42.5419" gradientUnits="userSpaceOnUse">
<stop stop-color="#4C7CE0" stop-opacity="0"/>
<stop offset="0.9375" stop-color="#4C7CE0"/>
</linearGradient>
</defs>
</svg>
