<svg width="163" height="23" viewBox="0 0 163 23" fill="none" xmlns="http://www.w3.org/2000/svg">
<path d="M10.4023 0.808594C11.7786 0.808594 13.082 0.931641 14.3125 1.17773C15.543 1.41471 16.6139 1.75195 17.5254 2.18945C18.446 2.62695 19.1751 3.15104 19.7129 3.76172C20.2507 4.36328 20.5195 5.02865 20.5195 5.75781V8.16406H16.9102V6.82422C16.9102 6.43229 16.7598 6.05859 16.459 5.70312C16.1582 5.33854 15.7253 5.02409 15.1602 4.75977C14.6042 4.48633 13.9251 4.27214 13.123 4.11719C12.321 3.95312 11.4141 3.87109 10.4023 3.87109C9.42708 3.87109 8.53841 3.94857 7.73633 4.10352C6.93424 4.24935 6.24609 4.45443 5.67188 4.71875C5.09766 4.98307 4.65104 5.29753 4.33203 5.66211C4.02214 6.01758 3.86719 6.40495 3.86719 6.82422V16.4766C3.86719 16.8776 4.02214 17.2559 4.33203 17.6113C4.65104 17.9668 5.09766 18.2767 5.67188 18.541C6.24609 18.7962 6.93424 19.0013 7.73633 19.1562C8.53841 19.3021 9.42708 19.375 10.4023 19.375C11.4141 19.375 12.321 19.2975 13.123 19.1426C13.9251 18.9785 14.6042 18.7643 15.1602 18.5C15.7253 18.2357 16.1582 17.9303 16.459 17.584C16.7598 17.2285 16.9102 16.8594 16.9102 16.4766V15.1094H20.5195V17.5156C20.5195 17.9987 20.3965 18.459 20.1504 18.8965C19.9043 19.3249 19.5579 19.7214 19.1113 20.0859C18.6738 20.4505 18.1452 20.7786 17.5254 21.0703C16.9147 21.3529 16.2311 21.599 15.4746 21.8086C14.7272 22.0091 13.9251 22.1641 13.0684 22.2734C12.2116 22.3828 11.3229 22.4375 10.4023 22.4375C9.48177 22.4375 8.5931 22.3828 7.73633 22.2734C6.87956 22.1641 6.07292 22.0091 5.31641 21.8086C4.56901 21.599 3.88542 21.3529 3.26562 21.0703C2.65495 20.7786 2.1263 20.4505 1.67969 20.0859C1.24219 19.7214 0.900391 19.3249 0.654297 18.8965C0.408203 18.459 0.285156 17.9987 0.285156 17.5156V5.75781C0.285156 5.27474 0.408203 4.81445 0.654297 4.37695C0.900391 3.93945 1.24219 3.53841 1.67969 3.17383C2.1263 2.80924 2.65495 2.48112 3.26562 2.18945C3.88542 1.89779 4.56901 1.65169 5.31641 1.45117C6.07292 1.24154 6.87956 1.08203 7.73633 0.972656C8.5931 0.863281 9.48177 0.808594 10.4023 0.808594ZM33.2891 6.16797C34.0547 6.16797 34.8158 6.20443 35.5723 6.27734C36.3379 6.35026 37.0716 6.46875 37.7734 6.63281C38.4753 6.79688 39.1315 7.00195 39.7422 7.24805C40.3529 7.49414 40.8815 7.79036 41.3281 8.13672C41.7839 8.48307 42.1393 8.88411 42.3945 9.33984C42.6497 9.78646 42.7773 10.2878 42.7773 10.8438V17.9258C42.7773 18.418 42.6497 18.8691 42.3945 19.2793C42.1393 19.6895 41.7839 20.0586 41.3281 20.3867C40.8815 20.7057 40.3529 20.9837 39.7422 21.2207C39.1315 21.4577 38.4753 21.6536 37.7734 21.8086C37.0716 21.9635 36.3379 22.0775 35.5723 22.1504C34.8066 22.2324 34.0456 22.2734 33.2891 22.2734C32.5326 22.2734 31.7715 22.2324 31.0059 22.1504C30.2493 22.0775 29.5202 21.9635 28.8184 21.8086C28.1165 21.6536 27.4603 21.4577 26.8496 21.2207C26.248 20.9837 25.7194 20.7057 25.2637 20.3867C24.8171 20.0586 24.4661 19.694 24.2109 19.293C23.9557 18.8828 23.8281 18.4271 23.8281 17.9258V10.8438C23.8281 10.2878 23.9557 9.78646 24.2109 9.33984C24.4661 8.88411 24.8171 8.48307 25.2637 8.13672C25.7194 7.79036 26.248 7.49414 26.8496 7.24805C27.4603 7.00195 28.1165 6.79688 28.8184 6.63281C29.5202 6.46875 30.2493 6.35026 31.0059 6.27734C31.7715 6.20443 32.5326 6.16797 33.2891 6.16797ZM27.3008 17.0508C27.3008 17.4701 27.474 17.8346 27.8203 18.1445C28.1758 18.4453 28.6361 18.7005 29.2012 18.9102C29.7663 19.1107 30.4043 19.2611 31.1152 19.3613C31.8353 19.4616 32.5599 19.5117 33.2891 19.5117C34.0547 19.5117 34.793 19.457 35.5039 19.3477C36.224 19.2383 36.862 19.0833 37.418 18.8828C37.974 18.6732 38.416 18.418 38.7441 18.1172C39.0814 17.8073 39.25 17.4518 39.25 17.0508V11.3633C39.25 10.9714 39.0814 10.6204 38.7441 10.3105C38.416 9.99154 37.974 9.72721 37.418 9.51758C36.862 9.29883 36.224 9.13477 35.5039 9.02539C34.793 8.9069 34.0547 8.84766 33.2891 8.84766C32.5599 8.84766 31.8353 8.90234 31.1152 9.01172C30.4043 9.11198 29.7663 9.26693 29.2012 9.47656C28.6361 9.6862 28.1758 9.95052 27.8203 10.2695C27.474 10.5794 27.3008 10.944 27.3008 11.3633V17.0508ZM50.0508 22H46.5781V6.41406H50.0508V22ZM48.3281 1C49.0026 1 49.5358 1.11393 49.9277 1.3418C50.3197 1.56055 50.5156 1.91146 50.5156 2.39453V3.07812C50.5156 3.51562 50.3197 3.83008 49.9277 4.02148C49.5358 4.21289 49.0026 4.30859 48.3281 4.30859C47.681 4.30859 47.1569 4.21289 46.7559 4.02148C46.3639 3.83008 46.168 3.51562 46.168 3.07812V2.39453C46.168 1.91146 46.3639 1.56055 46.7559 1.3418C47.1569 1.11393 47.681 1 48.3281 1ZM55.7383 10.707C55.7018 10.4154 55.6152 10.1693 55.4785 9.96875C55.3509 9.76823 55.2096 9.60417 55.0547 9.47656C54.8815 9.32161 54.6901 9.19401 54.4805 9.09375L56.0117 6.41406C56.349 6.53255 56.6862 6.69206 57.0234 6.89258C57.306 7.06576 57.6022 7.28906 57.9121 7.5625C58.2311 7.82682 58.5091 8.15495 58.7461 8.54688C59.2018 8.25521 59.6667 7.98177 60.1406 7.72656C60.6237 7.46224 61.125 7.23438 61.6445 7.04297C62.1732 6.85156 62.7246 6.70117 63.2988 6.5918C63.8822 6.47331 64.5065 6.41406 65.1719 6.41406C66.5755 6.41406 67.7786 6.53255 68.7812 6.76953C69.793 6.9974 70.6178 7.34375 71.2559 7.80859C71.903 8.26432 72.377 8.83398 72.6777 9.51758C72.9785 10.2012 73.1289 10.9987 73.1289 11.9102V22H69.5469V12.7578C69.5469 12.2474 69.4785 11.8099 69.3418 11.4453C69.2051 11.0716 69.0182 10.7572 68.7812 10.502C68.5534 10.2376 68.2845 10.0234 67.9746 9.85938C67.6647 9.69531 67.3411 9.57227 67.0039 9.49023C66.6758 9.39909 66.3385 9.33984 65.9922 9.3125C65.6458 9.27604 65.3177 9.25781 65.0078 9.25781C64.4245 9.25781 63.8685 9.29883 63.3398 9.38086C62.8112 9.46289 62.3099 9.57682 61.8359 9.72266C61.362 9.85938 60.9154 10.0234 60.4961 10.2148C60.0768 10.4062 59.6849 10.6068 59.3203 10.8164V22H55.7383V10.707ZM86.418 6.16797C87.1745 6.16797 87.9355 6.20443 88.7012 6.27734C89.4668 6.35026 90.2005 6.46875 90.9023 6.63281C91.6042 6.79688 92.2604 7.00195 92.8711 7.24805C93.4818 7.49414 94.0104 7.79036 94.457 8.13672C94.9128 8.48307 95.2682 8.88411 95.5234 9.33984C95.7786 9.78646 95.9062 10.2878 95.9062 10.8438L92.4062 11.3633C92.4062 10.9714 92.2376 10.6204 91.9004 10.3105C91.5632 9.99154 91.1165 9.72721 90.5605 9.51758C90.0046 9.29883 89.3665 9.13477 88.6465 9.02539C87.9264 8.9069 87.1836 8.84766 86.418 8.84766C85.6888 8.84766 84.9688 8.90234 84.2578 9.01172C83.5469 9.11198 82.9089 9.26693 82.3438 9.47656C81.7878 9.6862 81.332 9.95052 80.9766 10.2695C80.6302 10.5794 80.457 10.944 80.457 11.3633V17.0508C80.457 17.4701 80.6302 17.8346 80.9766 18.1445C81.332 18.4453 81.7878 18.7005 82.3438 18.9102C82.9089 19.1107 83.5469 19.2611 84.2578 19.3613C84.9688 19.4616 85.6888 19.5117 86.418 19.5117C87.1836 19.5117 87.9264 19.457 88.6465 19.3477C89.3665 19.2383 90.0046 19.0833 90.5605 18.8828C91.1165 18.6732 91.5632 18.418 91.9004 18.1172C92.2376 17.8073 92.4062 17.4518 92.4062 17.0508L95.9062 17.9258C95.9062 18.418 95.7786 18.8691 95.5234 19.2793C95.2682 19.6895 94.9128 20.0586 94.457 20.3867C94.0104 20.7057 93.4818 20.9837 92.8711 21.2207C92.2604 21.4577 91.6042 21.6536 90.9023 21.8086C90.2005 21.9635 89.4668 22.0775 88.7012 22.1504C87.9355 22.2324 87.1745 22.2734 86.418 22.2734C85.6615 22.2734 84.9004 22.2324 84.1348 22.1504C83.3783 22.0775 82.6491 21.9635 81.9473 21.8086C81.2454 21.6536 80.5892 21.4577 79.9785 21.2207C79.377 20.9837 78.8483 20.7057 78.3926 20.3867C77.946 20.0586 77.5951 19.694 77.3398 19.293C77.0846 18.8828 76.957 18.4271 76.957 17.9258V10.8438C76.957 10.2878 77.0846 9.78646 77.3398 9.33984C77.5951 8.88411 77.946 8.48307 78.3926 8.13672C78.8483 7.79036 79.377 7.49414 79.9785 7.24805C80.5892 7.00195 81.2454 6.79688 81.9473 6.63281C82.6491 6.46875 83.3783 6.35026 84.1348 6.27734C84.9004 6.20443 85.6615 6.16797 86.418 6.16797ZM114.582 16.4219C114.354 16.2214 114.072 16.0254 113.734 15.834C113.397 15.6426 112.982 15.474 112.49 15.3281C111.998 15.1732 111.41 15.0501 110.727 14.959C110.052 14.8587 109.259 14.8086 108.348 14.8086C107.536 14.8086 106.766 14.8268 106.037 14.8633C105.317 14.8906 104.684 14.9818 104.137 15.1367C103.59 15.2826 103.157 15.5195 102.838 15.8477C102.519 16.1758 102.359 16.6315 102.359 17.2148V18.9648C103.161 19.0924 104.046 19.1973 105.012 19.2793C105.978 19.3613 107.053 19.4023 108.238 19.4023C109.186 19.4023 110.193 19.3704 111.26 19.3066C112.335 19.2337 113.443 19.0924 114.582 18.8828V16.4219ZM108.43 6.41406C108.885 6.41406 109.437 6.43685 110.084 6.48242C110.731 6.52799 111.406 6.61003 112.107 6.72852C112.809 6.83789 113.502 6.99284 114.186 7.19336C114.878 7.38477 115.498 7.63997 116.045 7.95898C116.601 8.26888 117.048 8.64258 117.385 9.08008C117.722 9.51758 117.891 10.0326 117.891 10.625V21.207C117.125 21.362 116.259 21.4941 115.293 21.6035C114.464 21.7038 113.475 21.7949 112.326 21.877C111.178 21.959 109.897 22 108.484 22C107.081 22 105.586 21.9408 104 21.8223C102.423 21.7038 100.773 21.4987 99.0508 21.207V16.2852C99.0508 15.7565 99.1738 15.2962 99.4199 14.9043C99.6751 14.5033 100.021 14.1615 100.459 13.8789C100.896 13.5964 101.411 13.3639 102.004 13.1816C102.596 12.9993 103.234 12.8535 103.918 12.7441C104.602 12.6348 105.312 12.5618 106.051 12.5254C106.789 12.4798 107.527 12.457 108.266 12.457C109.387 12.457 110.339 12.5299 111.123 12.6758C111.916 12.8125 112.572 12.9629 113.092 13.127C113.693 13.3275 114.19 13.5508 114.582 13.7969V11.582C114.582 11.2083 114.491 10.8893 114.309 10.625C114.126 10.3516 113.88 10.1237 113.57 9.94141C113.26 9.75 112.905 9.59961 112.504 9.49023C112.103 9.37174 111.684 9.2806 111.246 9.2168C110.809 9.15299 110.362 9.11198 109.906 9.09375C109.46 9.07552 109.04 9.06641 108.648 9.06641C108.238 9.06641 107.801 9.08008 107.336 9.10742C106.871 9.12565 106.406 9.16667 105.941 9.23047C105.486 9.29427 105.044 9.38542 104.615 9.50391C104.196 9.61328 103.822 9.76367 103.494 9.95508C103.166 10.1465 102.902 10.3789 102.701 10.6523C102.51 10.9167 102.414 11.2357 102.414 11.6094L99.0234 10.7344C99.0234 10.1237 99.1738 9.59505 99.4746 9.14844C99.7754 8.69271 100.172 8.30534 100.664 7.98633C101.165 7.66732 101.74 7.40755 102.387 7.20703C103.034 6.9974 103.704 6.83789 104.396 6.72852C105.098 6.61003 105.796 6.52799 106.488 6.48242C107.181 6.43685 107.828 6.41406 108.43 6.41406ZM130.852 6.41406C131.936 6.41406 132.993 6.48242 134.023 6.61914C135.053 6.74674 135.979 6.97005 136.799 7.28906C137.619 7.59896 138.294 8.02279 138.822 8.56055C139.351 9.09831 139.665 9.76823 139.766 10.5703L136.594 11.4453C136.594 10.9714 136.43 10.5794 136.102 10.2695C135.783 9.95052 135.354 9.70443 134.816 9.53125C134.288 9.34896 133.677 9.22135 132.984 9.14844C132.292 9.07552 131.581 9.03906 130.852 9.03906C130.15 9.03906 129.452 9.07552 128.76 9.14844C128.076 9.21224 127.461 9.33529 126.914 9.51758C126.376 9.69076 125.939 9.93229 125.602 10.2422C125.273 10.5521 125.109 10.9531 125.109 11.4453V13.1133H139.766V17.8438C139.766 18.3815 139.647 18.86 139.41 19.2793C139.173 19.6895 138.845 20.0495 138.426 20.3594C138.007 20.6602 137.51 20.9199 136.936 21.1387C136.37 21.3483 135.755 21.5169 135.09 21.6445C134.434 21.7721 133.741 21.8633 133.012 21.918C132.292 21.9727 131.572 22 130.852 22C129.749 22 128.682 21.9362 127.652 21.8086C126.622 21.6719 125.697 21.4486 124.877 21.1387C124.057 20.8197 123.382 20.3958 122.854 19.8672C122.334 19.3294 122.029 18.6549 121.938 17.8438L125.109 16.9688C125.109 17.4701 125.273 17.8757 125.602 18.1855C125.939 18.4954 126.376 18.737 126.914 18.9102C127.461 19.0833 128.076 19.2018 128.76 19.2656C129.452 19.3203 130.15 19.3477 130.852 19.3477C131.581 19.3477 132.292 19.3158 132.984 19.252C133.677 19.179 134.288 19.056 134.816 18.8828C135.354 18.7005 135.783 18.459 136.102 18.1582C136.43 17.8483 136.594 17.4518 136.594 16.9688V15.3008H121.938V10.5703C121.938 10.0326 122.056 9.55859 122.293 9.14844C122.53 8.72917 122.854 8.36914 123.264 8.06836C123.683 7.75846 124.175 7.4987 124.74 7.28906C125.305 7.07031 125.916 6.89714 126.572 6.76953C127.238 6.64193 127.93 6.55078 128.65 6.49609C129.38 6.44141 130.113 6.41406 130.852 6.41406ZM153 1.19141C154.404 1.19141 155.889 1.24154 157.457 1.3418C159.034 1.44206 160.674 1.63802 162.379 1.92969V5.40234C161.613 5.18359 160.839 5.00586 160.055 4.86914C159.271 4.72331 158.482 4.60938 157.689 4.52734C156.906 4.44531 156.122 4.38607 155.338 4.34961C154.554 4.31315 153.775 4.29036 153 4.28125C152.626 4.28125 152.212 4.29036 151.756 4.30859C151.309 4.31771 150.831 4.33594 150.32 4.36328C149.819 4.39062 149.29 4.43164 148.734 4.48633C148.178 4.54102 147.613 4.60938 147.039 4.69141V9.66797H158.988V13.0312H147.039V18.5273C147.923 18.6549 148.844 18.7507 149.801 18.8145C150.758 18.8783 151.824 18.9102 153 18.9102C154.586 18.9102 156.163 18.8327 157.73 18.6777C159.298 18.5228 160.848 18.2266 162.379 17.7891V21.2617C160.674 21.5534 159.038 21.7493 157.471 21.8496C155.903 21.9499 154.431 22 153.055 22C151.651 22 150.161 21.9499 148.584 21.8496C147.016 21.7493 145.371 21.5534 143.648 21.2617V1.92969C145.371 1.63802 147.016 1.44206 148.584 1.3418C150.152 1.24154 151.624 1.19141 153 1.19141Z" fill="url(#paint0_linear)"/>
<defs>
<linearGradient id="paint0_linear" x1="274.177" y1="-83.5" x2="30.0853" y2="73.3694" gradientUnits="userSpaceOnUse">
<stop stop-color="#4C7CE0" stop-opacity="0"/>
<stop offset="0.9375" stop-color="#4C7CE0"/>
</linearGradient>
</defs>
</svg>
