<svg width="31" height="31" viewBox="0 0 31 31" fill="none" xmlns="http://www.w3.org/2000/svg">
<path fill-rule="evenodd" clip-rule="evenodd" d="M0 15.5C0 24.0604 6.93961 31 15.5 31C24.0604 31 31 24.0604 31 15.5C31 6.93961 24.0604 0 15.5 0C6.93961 0 0 6.93961 0 15.5ZM24.2842 12.7271C25.7084 12.7271 26.8667 13.8806 26.8667 15.2982C26.8667 16.2355 26.3582 17.0543 25.6046 17.5028C25.6356 17.7169 25.6523 17.9333 25.6523 18.1522C25.6523 21.8082 21.1933 24.7826 15.7129 24.7826C10.2319 24.7826 5.77346 21.8082 5.77346 18.1522C5.77346 17.9163 5.7929 17.683 5.829 17.4527C5.12059 16.9943 4.65 16.2008 4.65 15.2982C4.65 13.8806 5.8083 12.7274 7.23243 12.7271C7.86509 12.7271 8.4455 12.9563 8.89513 13.3343C10.6099 12.2543 12.8979 11.5762 15.42 11.5269L16.8947 6.88646C16.9722 6.63962 17.2292 6.49456 17.4821 6.55366L21.3011 7.4482C21.643 6.72228 22.3819 6.21684 23.2393 6.21684C24.4193 6.21684 25.3799 7.17275 25.3799 8.34804C25.3799 9.52339 24.4195 10.4792 23.2393 10.4792C22.0828 10.4792 21.1403 9.56105 21.1022 8.41921L17.7036 7.62238L16.4579 11.5422C18.8268 11.6601 20.9659 12.3335 22.5839 13.3683C23.0386 12.9707 23.6328 12.7271 24.2842 12.7271Z" fill="#E5ECFA"/>
<path d="M25.332 16.4818C24.9687 15.5505 24.3072 14.6987 23.4219 13.9731C23.6703 13.8119 23.9662 13.7174 24.2843 13.7174C25.1598 13.7174 25.872 14.4265 25.872 15.2982C25.8715 15.7694 25.662 16.1922 25.332 16.4818Z" fill="#E5ECFA"/>
<path d="M23.2389 7.2077C23.8709 7.2077 24.3848 7.71972 24.3848 8.34882C24.3848 8.97793 23.8709 9.48969 23.2389 9.48969C22.6068 9.48969 22.0928 8.97793 22.0928 8.34882C22.0928 7.71972 22.6068 7.2077 23.2389 7.2077Z" fill="#E5ECFA"/>
<path fill-rule="evenodd" clip-rule="evenodd" d="M15.7133 23.7926C20.6449 23.7926 24.6581 21.2623 24.6581 18.1528C24.6581 18.048 24.6527 17.9444 24.6439 17.8406C24.6151 17.5093 24.5384 17.1858 24.4225 16.8717C24.1284 16.0787 23.5707 15.3492 22.8078 14.7236C22.5548 14.5157 22.2801 14.3192 21.9845 14.1359C20.3697 13.1328 18.1543 12.5124 15.7133 12.5124C13.3071 12.5124 11.1213 13.1157 9.51186 14.0937C9.21697 14.2729 8.94153 14.465 8.68726 14.6683C7.89282 15.3035 7.31112 16.0485 7.0079 16.8603C6.891 17.1735 6.81428 17.4968 6.78425 17.8273C6.77463 17.9351 6.76855 18.0432 6.76855 18.1528C6.76855 21.2625 10.781 23.7926 15.7133 23.7926ZM12.4424 15.4251C13.2813 15.4251 13.9615 16.1256 13.9615 16.9606C13.9615 17.7954 13.2813 18.4723 12.4424 18.4733C11.604 18.4733 10.9004 17.7954 10.9004 16.9606C10.9004 16.1256 11.6037 15.4251 12.4424 15.4251ZM19.0981 15.4246C18.2594 15.4246 17.5538 16.1249 17.5538 16.9599C17.5538 17.7951 18.2594 18.4725 19.0981 18.4725C19.937 18.4725 20.6176 17.7956 20.6176 16.9599C20.6172 16.1244 19.937 15.4246 19.0981 15.4246ZM15.7704 21.4578C17.1587 21.4578 18.1062 21.1861 18.6689 20.6266C18.8635 20.4336 19.1786 20.4336 19.3733 20.6271C19.5674 20.8201 19.5674 21.1333 19.3728 21.3271C18.6144 22.0812 17.4358 22.4484 15.7704 22.4484C15.7682 22.4484 15.7661 22.448 15.7641 22.4476C15.7622 22.4472 15.7602 22.4469 15.7582 22.4469C15.7562 22.4469 15.7544 22.4472 15.7525 22.4476C15.7505 22.448 15.7485 22.4484 15.7464 22.4484C14.0806 22.4484 12.9024 22.0812 12.1447 21.3266C11.9503 21.1338 11.9503 20.8204 12.1447 20.6266C12.3389 20.4331 12.654 20.4331 12.8481 20.6266C13.4101 21.1861 14.3579 21.4578 15.7464 21.4578C15.7484 21.4578 15.7502 21.4581 15.7522 21.4585C15.7541 21.4587 15.7561 21.459 15.7582 21.459C15.7602 21.459 15.7622 21.4588 15.7641 21.4585C15.7661 21.4581 15.7682 21.4578 15.7704 21.4578Z" fill="#E5ECFA"/>
<path d="M5.64453 15.2982C5.64453 14.4268 6.35673 13.7174 7.23201 13.7174C7.52767 13.7174 7.80383 13.8001 8.04143 13.9411C7.15554 14.6577 6.49253 15.501 6.11866 16.4227C5.82606 16.1359 5.64453 15.7381 5.64453 15.2982Z" fill="#E5ECFA"/>
</svg>
